<svg width="89" height="165" viewBox="0 0 89 165" fill="none" xmlns="http://www.w3.org/2000/svg">
<path d="M64.9744 0C54.3968 0 45.8248 8.61295 45.8248 19.2334C45.8248 29.8565 64.9744 64.6943 64.9744 64.6943C64.9744 64.6943 84.1253 29.8565 84.1253 19.2334C84.1253 8.61295 75.5479 0 64.9744 0Z" fill="#F4A62F"/>
<path d="M64.9744 0C54.3968 0 45.8248 8.61295 45.8248 19.2334C45.8248 29.8565 64.9744 64.6943 64.9744 64.6943C64.9744 64.6943 84.1253 29.8565 84.1253 19.2334C84.1253 8.61295 75.5479 0 64.9744 0Z" stroke="white"/>
<ellipse cx="64.9274" cy="19.5801" rx="8.68073" ry="8.79771" fill="#FCFCFC" fill-opacity="0.22"/>
<g clip-path="url(#clip0_5_8516)">
<path d="M29.8063 147.959C37.8181 151.43 48.9814 143.172 54.7406 129.52C60.5014 115.865 64.889 64.7982 64.889 64.7982C64.889 64.7982 31.4916 103.295 25.7308 116.95C19.9715 130.602 21.7976 144.488 29.8063 147.959V147.959Z" fill="url(#paint0_linear_5_8516)" fill-opacity="0.15"/>
</g>
<defs>
<linearGradient id="paint0_linear_5_8516" x1="29.8058" y1="147.958" x2="65.69" y2="65.1453" gradientUnits="userSpaceOnUse">
<stop stop-color="#414141" stop-opacity="0"/>
<stop offset="1" stop-color="#414141"/>
</linearGradient>
<clipPath id="clip0_5_8516">
<rect width="55.9718" height="96.8431" fill="white" transform="matrix(-0.917562 -0.397593 0.388695 -0.921366 51.3576 165)"/>
</clipPath>
</defs>
</svg>
